<svg width="1092" height="386" viewBox="0 0 1092 386" fill="none" xmlns="http://www.w3.org/2000/svg">
<rect width="1092" height="386" rx="20" fill="black"/>
<path d="M83.32 124V94.2H87.24V124H83.32ZM83.44 90.12L86.6 83.8H91.64L87.16 90.12H83.44ZM103.427 124.48C101.32 124.48 99.4402 123.987 97.7869 123C96.1602 122.013 94.8802 120.667 93.9469 118.96C93.0135 117.253 92.5469 115.333 92.5469 113.2C92.5469 111.04 93.0135 109.12 93.9469 107.44C94.8802 105.76 96.1602 104.427 97.7869 103.44C99.4402 102.453 101.32 101.96 103.427 101.96C104.84 101.96 106.16 102.213 107.387 102.72C108.614 103.227 109.694 103.907 110.627 104.76C111.56 105.613 112.24 106.613 112.667 107.76L109.347 109.36C108.84 108.24 108.067 107.333 107.027 106.64C105.987 105.92 104.787 105.56 103.427 105.56C102.12 105.56 100.934 105.893 99.8669 106.56C98.8269 107.227 98.0002 108.133 97.3869 109.28C96.7735 110.427 96.4669 111.747 96.4669 113.24C96.4669 114.68 96.7735 115.987 97.3869 117.16C98.0002 118.307 98.8269 119.213 99.8669 119.88C100.934 120.547 102.12 120.88 103.427 120.88C104.787 120.88 105.987 120.533 107.027 119.84C108.067 119.12 108.84 118.173 109.347 117L112.667 118.68C112.24 119.8 111.56 120.8 110.627 121.68C109.694 122.533 108.614 123.213 107.387 123.72C106.16 124.227 104.84 124.48 103.427 124.48ZM127.768 124.48C125.688 124.48 123.808 124 122.128 123.04C120.448 122.053 119.115 120.707 118.128 119C117.142 117.293 116.648 115.36 116.648 113.2C116.648 111.04 117.128 109.12 118.088 107.44C119.075 105.76 120.408 104.427 122.088 103.44C123.768 102.453 125.662 101.96 127.768 101.96C129.848 101.96 131.728 102.453 133.408 103.44C135.088 104.4 136.408 105.72 137.368 107.4C138.355 109.08 138.848 111.013 138.848 113.2C138.848 115.387 138.342 117.333 137.328 119.04C136.315 120.72 134.968 122.053 133.288 123.04C131.635 124 129.795 124.48 127.768 124.48ZM127.768 120.88C129.102 120.88 130.302 120.547 131.368 119.88C132.462 119.213 133.315 118.293 133.928 117.12C134.568 115.947 134.888 114.64 134.888 113.2C134.888 111.733 134.568 110.44 133.928 109.32C133.315 108.173 132.462 107.267 131.368 106.6C130.302 105.907 129.102 105.56 127.768 105.56C126.408 105.56 125.182 105.907 124.088 106.6C123.022 107.267 122.168 108.173 121.528 109.32C120.888 110.44 120.568 111.733 120.568 113.2C120.568 114.64 120.888 115.947 121.528 117.12C122.168 118.293 123.022 119.213 124.088 119.88C125.182 120.547 126.408 120.88 127.768 120.88ZM143.7 124V102.44H147.34V106.64L146.74 106.28C147.274 104.92 148.127 103.867 149.3 103.12C150.5 102.347 151.9 101.96 153.5 101.96C155.047 101.96 156.42 102.307 157.62 103C158.847 103.693 159.807 104.653 160.5 105.88C161.22 107.107 161.58 108.493 161.58 110.04V124H157.82V111.24C157.82 110.04 157.607 109.027 157.18 108.2C156.754 107.373 156.14 106.733 155.34 106.28C154.567 105.8 153.674 105.56 152.66 105.56C151.647 105.56 150.74 105.8 149.94 106.28C149.167 106.733 148.554 107.387 148.1 108.24C147.647 109.067 147.42 110.067 147.42 111.24V124H143.7ZM176.823 124.48C174.743 124.48 172.89 123.987 171.263 123C169.637 122.013 168.357 120.667 167.423 118.96C166.49 117.227 166.023 115.293 166.023 113.16C166.023 111 166.477 109.08 167.383 107.4C168.317 105.72 169.57 104.4 171.143 103.44C172.743 102.453 174.53 101.96 176.503 101.96C178.103 101.96 179.517 102.253 180.743 102.84C181.997 103.4 183.05 104.173 183.903 105.16C184.783 106.12 185.45 107.227 185.903 108.48C186.383 109.707 186.623 110.987 186.623 112.32C186.623 112.613 186.597 112.947 186.543 113.32C186.517 113.667 186.477 114 186.423 114.32H168.743V111.12H184.263L182.503 112.56C182.743 111.173 182.61 109.933 182.103 108.84C181.597 107.747 180.85 106.88 179.863 106.24C178.877 105.6 177.757 105.28 176.503 105.28C175.25 105.28 174.103 105.6 173.063 106.24C172.023 106.88 171.21 107.8 170.623 109C170.063 110.173 169.837 111.573 169.943 113.2C169.837 114.773 170.077 116.16 170.663 117.36C171.277 118.533 172.13 119.453 173.223 120.12C174.343 120.76 175.557 121.08 176.863 121.08C178.303 121.08 179.517 120.747 180.503 120.08C181.49 119.413 182.29 118.56 182.903 117.52L186.023 119.12C185.597 120.107 184.93 121.013 184.023 121.84C183.143 122.64 182.09 123.28 180.863 123.76C179.663 124.24 178.317 124.48 176.823 124.48ZM199.194 124.48C197.034 124.48 195.154 123.947 193.554 122.88C191.954 121.813 190.82 120.373 190.154 118.56L193.114 117.12C193.727 118.4 194.567 119.413 195.634 120.16C196.7 120.907 197.887 121.28 199.194 121.28C200.367 121.28 201.34 121 202.114 120.44C202.887 119.88 203.274 119.147 203.274 118.24C203.274 117.6 203.087 117.093 202.714 116.72C202.367 116.32 201.94 116.013 201.434 115.8C200.927 115.56 200.46 115.387 200.034 115.28L196.794 114.36C194.847 113.8 193.42 113 192.514 111.96C191.634 110.92 191.194 109.707 191.194 108.32C191.194 107.04 191.514 105.933 192.154 105C192.82 104.04 193.714 103.293 194.834 102.76C195.98 102.227 197.26 101.96 198.674 101.96C200.567 101.96 202.26 102.44 203.754 103.4C205.274 104.36 206.354 105.707 206.994 107.44L203.954 108.84C203.474 107.72 202.754 106.84 201.794 106.2C200.834 105.533 199.754 105.2 198.554 105.2C197.46 105.2 196.594 105.48 195.954 106.04C195.314 106.573 194.994 107.253 194.994 108.08C194.994 108.693 195.154 109.2 195.474 109.6C195.794 109.973 196.18 110.267 196.634 110.48C197.087 110.667 197.527 110.827 197.954 110.96L201.474 112C203.234 112.507 204.594 113.293 205.554 114.36C206.54 115.427 207.034 116.707 207.034 118.2C207.034 119.4 206.7 120.48 206.034 121.44C205.367 122.4 204.447 123.147 203.274 123.68C202.1 124.213 200.74 124.48 199.194 124.48Z" fill="#E1E1E6"/>
<path d="M95 189.875C95 194.25 88.5131 197.791 88.2369 197.938C88.1641 197.977 88.0827 197.997 88 197.997C87.9173 197.997 87.8359 197.977 87.7631 197.938C87.4869 197.791 81 194.25 81 189.875C81.0012 188.848 81.4098 187.863 82.1362 187.136C82.8627 186.41 83.8476 186.001 84.875 186C86.1656 186 87.2956 186.555 88 187.493C88.7044 186.555 89.8344 186 91.125 186C92.1524 186.001 93.1373 186.41 93.8638 187.136C94.5902 187.863 94.9988 188.848 95 189.875Z" fill="#F0E8C2"/>
<rect x="80" y="248" width="430" height="58" rx="8" fill="#121214"/>
<path d="M103.212 284.192C102.369 284.192 101.58 284.043 100.844 283.744C100.108 283.435 99.4622 283.003 98.9075 282.448C98.3635 281.893 97.9368 281.243 97.6275 280.496C97.3182 279.739 97.1635 278.917 97.1635 278.032C97.1635 277.136 97.3182 276.315 97.6275 275.568C97.9368 274.821 98.3635 274.171 98.9075 273.616C99.4622 273.061 100.102 272.635 100.828 272.336C101.564 272.037 102.358 271.888 103.212 271.888C104.065 271.888 104.854 272.043 105.58 272.352C106.316 272.651 106.956 273.077 107.5 273.632C108.054 274.176 108.486 274.821 108.796 275.568C109.116 276.315 109.276 277.136 109.276 278.032C109.276 278.917 109.116 279.739 108.796 280.496C108.486 281.243 108.054 281.893 107.5 282.448C106.956 283.003 106.316 283.435 105.58 283.744C104.854 284.043 104.065 284.192 103.212 284.192ZM103.212 282.736C103.873 282.736 104.476 282.619 105.02 282.384C105.564 282.139 106.033 281.803 106.428 281.376C106.833 280.939 107.142 280.437 107.356 279.872C107.58 279.296 107.692 278.683 107.692 278.032C107.692 277.381 107.58 276.773 107.356 276.208C107.142 275.643 106.833 275.147 106.428 274.72C106.033 274.283 105.564 273.947 105.02 273.712C104.476 273.467 103.873 273.344 103.212 273.344C102.561 273.344 101.964 273.467 101.42 273.712C100.876 273.947 100.401 274.283 99.9955 274.72C99.6008 275.147 99.2915 275.643 99.0675 276.208C98.8435 276.773 98.7315 277.381 98.7315 278.032C98.7315 278.683 98.8435 279.296 99.0675 279.872C99.2915 280.437 99.6008 280.939 99.9955 281.376C100.401 281.803 100.876 282.139 101.42 282.384C101.964 282.619 102.561 282.736 103.212 282.736ZM114.474 284.192C113.61 284.192 112.858 283.979 112.218 283.552C111.578 283.125 111.125 282.549 110.858 281.824L112.042 281.248C112.288 281.76 112.624 282.165 113.05 282.464C113.477 282.763 113.952 282.912 114.474 282.912C114.944 282.912 115.333 282.8 115.642 282.576C115.952 282.352 116.106 282.059 116.106 281.696C116.106 281.44 116.032 281.237 115.882 281.088C115.744 280.928 115.573 280.805 115.37 280.72C115.168 280.624 114.981 280.555 114.81 280.512L113.514 280.144C112.736 279.92 112.165 279.6 111.802 279.184C111.45 278.768 111.274 278.283 111.274 277.728C111.274 277.216 111.402 276.773 111.658 276.4C111.925 276.016 112.282 275.717 112.73 275.504C113.189 275.291 113.701 275.184 114.266 275.184C115.024 275.184 115.701 275.376 116.298 275.76C116.906 276.144 117.338 276.683 117.594 277.376L116.378 277.936C116.186 277.488 115.898 277.136 115.514 276.88C115.13 276.613 114.698 276.48 114.218 276.48C113.781 276.48 113.434 276.592 113.178 276.816C112.922 277.029 112.794 277.301 112.794 277.632C112.794 277.877 112.858 278.08 112.986 278.24C113.114 278.389 113.269 278.507 113.45 278.592C113.632 278.667 113.808 278.731 113.978 278.784L115.386 279.2C116.09 279.403 116.634 279.717 117.018 280.144C117.413 280.571 117.61 281.083 117.61 281.68C117.61 282.16 117.477 282.592 117.21 282.976C116.944 283.36 116.576 283.659 116.106 283.872C115.637 284.085 115.093 284.192 114.474 284.192ZM122.1 284V275.376H123.588V284H122.1ZM122.1 273.76L123.364 271.232H125.38L123.588 273.76H122.1ZM129.668 284.192C128.825 284.192 128.073 283.995 127.412 283.6C126.761 283.205 126.249 282.667 125.876 281.984C125.502 281.301 125.316 280.533 125.316 279.68C125.316 278.816 125.502 278.048 125.876 277.376C126.249 276.704 126.761 276.171 127.412 275.776C128.073 275.381 128.825 275.184 129.668 275.184C130.233 275.184 130.761 275.285 131.252 275.488C131.742 275.691 132.174 275.963 132.548 276.304C132.921 276.645 133.193 277.045 133.364 277.504L132.036 278.144C131.833 277.696 131.524 277.333 131.108 277.056C130.692 276.768 130.212 276.624 129.668 276.624C129.145 276.624 128.67 276.757 128.244 277.024C127.828 277.291 127.497 277.653 127.252 278.112C127.006 278.571 126.884 279.099 126.884 279.696C126.884 280.272 127.006 280.795 127.252 281.264C127.497 281.723 127.828 282.085 128.244 282.352C128.67 282.619 129.145 282.752 129.668 282.752C130.212 282.752 130.692 282.613 131.108 282.336C131.524 282.048 131.833 281.669 132.036 281.2L133.364 281.872C133.193 282.32 132.921 282.72 132.548 283.072C132.174 283.413 131.742 283.685 131.252 283.888C130.761 284.091 130.233 284.192 129.668 284.192ZM139.404 284.192C138.572 284.192 137.82 284 137.148 283.616C136.476 283.221 135.943 282.683 135.548 282C135.154 281.317 134.956 280.544 134.956 279.68C134.956 278.816 135.148 278.048 135.532 277.376C135.927 276.704 136.46 276.171 137.132 275.776C137.804 275.381 138.562 275.184 139.404 275.184C140.236 275.184 140.988 275.381 141.66 275.776C142.332 276.16 142.86 276.688 143.244 277.36C143.639 278.032 143.836 278.805 143.836 279.68C143.836 280.555 143.634 281.333 143.228 282.016C142.823 282.688 142.284 283.221 141.612 283.616C140.951 284 140.215 284.192 139.404 284.192ZM139.404 282.752C139.938 282.752 140.418 282.619 140.844 282.352C141.282 282.085 141.623 281.717 141.868 281.248C142.124 280.779 142.252 280.256 142.252 279.68C142.252 279.093 142.124 278.576 141.868 278.128C141.623 277.669 141.282 277.307 140.844 277.04C140.418 276.763 139.938 276.624 139.404 276.624C138.86 276.624 138.37 276.763 137.932 277.04C137.506 277.307 137.164 277.669 136.908 278.128C136.652 278.576 136.524 279.093 136.524 279.68C136.524 280.256 136.652 280.779 136.908 281.248C137.164 281.717 137.506 282.085 137.932 282.352C138.37 282.619 138.86 282.752 139.404 282.752ZM145.777 284V275.376H147.233V277.056L146.993 276.912C147.206 276.368 147.548 275.947 148.017 275.648C148.497 275.339 149.057 275.184 149.697 275.184C150.316 275.184 150.865 275.323 151.345 275.6C151.836 275.877 152.22 276.261 152.497 276.752C152.785 277.243 152.929 277.797 152.929 278.416V284H151.425V278.896C151.425 278.416 151.34 278.011 151.169 277.68C150.998 277.349 150.753 277.093 150.433 276.912C150.124 276.72 149.766 276.624 149.361 276.624C148.956 276.624 148.593 276.72 148.273 276.912C147.964 277.093 147.718 277.355 147.537 277.696C147.356 278.027 147.265 278.427 147.265 278.896V284H145.777ZM159.026 284.192C158.194 284.192 157.453 283.995 156.802 283.6C156.152 283.205 155.64 282.667 155.266 281.984C154.893 281.291 154.706 280.517 154.706 279.664C154.706 278.8 154.888 278.032 155.25 277.36C155.624 276.688 156.125 276.16 156.754 275.776C157.394 275.381 158.109 275.184 158.898 275.184C159.538 275.184 160.104 275.301 160.594 275.536C161.096 275.76 161.517 276.069 161.858 276.464C162.21 276.848 162.477 277.291 162.658 277.792C162.85 278.283 162.946 278.795 162.946 279.328C162.946 279.445 162.936 279.579 162.914 279.728C162.904 279.867 162.888 280 162.866 280.128H155.794V278.848H162.002L161.298 279.424C161.394 278.869 161.341 278.373 161.138 277.936C160.936 277.499 160.637 277.152 160.242 276.896C159.848 276.64 159.4 276.512 158.898 276.512C158.397 276.512 157.938 276.64 157.522 276.896C157.106 277.152 156.781 277.52 156.546 278C156.322 278.469 156.232 279.029 156.274 279.68C156.232 280.309 156.328 280.864 156.562 281.344C156.808 281.813 157.149 282.181 157.586 282.448C158.034 282.704 158.52 282.832 159.042 282.832C159.618 282.832 160.104 282.699 160.498 282.432C160.893 282.165 161.213 281.824 161.458 281.408L162.706 282.048C162.536 282.443 162.269 282.805 161.906 283.136C161.554 283.456 161.133 283.712 160.642 283.904C160.162 284.096 159.624 284.192 159.026 284.192ZM167.974 284.192C167.11 284.192 166.358 283.979 165.718 283.552C165.078 283.125 164.625 282.549 164.358 281.824L165.542 281.248C165.788 281.76 166.124 282.165 166.55 282.464C166.977 282.763 167.452 282.912 167.974 282.912C168.444 282.912 168.833 282.8 169.142 282.576C169.452 282.352 169.606 282.059 169.606 281.696C169.606 281.44 169.532 281.237 169.382 281.088C169.244 280.928 169.073 280.805 168.87 280.72C168.668 280.624 168.481 280.555 168.31 280.512L167.014 280.144C166.236 279.92 165.665 279.6 165.302 279.184C164.95 278.768 164.774 278.283 164.774 277.728C164.774 277.216 164.902 276.773 165.158 276.4C165.425 276.016 165.782 275.717 166.23 275.504C166.689 275.291 167.201 275.184 167.766 275.184C168.524 275.184 169.201 275.376 169.798 275.76C170.406 276.144 170.838 276.683 171.094 277.376L169.878 277.936C169.686 277.488 169.398 277.136 169.014 276.88C168.63 276.613 168.198 276.48 167.718 276.48C167.281 276.48 166.934 276.592 166.678 276.816C166.422 277.029 166.294 277.301 166.294 277.632C166.294 277.877 166.358 278.08 166.486 278.24C166.614 278.389 166.769 278.507 166.95 278.592C167.132 278.667 167.308 278.731 167.478 278.784L168.886 279.2C169.59 279.403 170.134 279.717 170.518 280.144C170.913 280.571 171.11 281.083 171.11 281.68C171.11 282.16 170.977 282.592 170.71 282.976C170.444 283.36 170.076 283.659 169.606 283.872C169.137 284.085 168.593 284.192 167.974 284.192ZM175.824 287.2V275.376H177.28V277.232L177.088 276.864C177.408 276.352 177.845 275.947 178.4 275.648C178.955 275.339 179.589 275.184 180.304 275.184C181.115 275.184 181.84 275.381 182.48 275.776C183.131 276.171 183.643 276.709 184.016 277.392C184.389 278.064 184.576 278.832 184.576 279.696C184.576 280.539 184.389 281.301 184.016 281.984C183.643 282.667 183.131 283.205 182.48 283.6C181.84 283.995 181.109 284.192 180.288 284.192C179.595 284.192 178.96 284.037 178.384 283.728C177.819 283.419 177.381 282.981 177.072 282.416L177.312 282.16V287.2H175.824ZM180.176 282.752C180.72 282.752 181.205 282.619 181.632 282.352C182.059 282.085 182.389 281.723 182.624 281.264C182.869 280.795 182.992 280.272 182.992 279.696C182.992 279.099 182.869 278.576 182.624 278.128C182.389 277.669 182.059 277.307 181.632 277.04C181.205 276.763 180.72 276.624 180.176 276.624C179.632 276.624 179.141 276.757 178.704 277.024C178.277 277.291 177.936 277.659 177.68 278.128C177.435 278.587 177.312 279.109 177.312 279.696C177.312 280.272 177.435 280.795 177.68 281.264C177.936 281.723 178.277 282.085 178.704 282.352C179.141 282.619 179.632 282.752 180.176 282.752ZM190.623 284.192C189.791 284.192 189.039 284 188.367 283.616C187.695 283.221 187.162 282.683 186.767 282C186.372 281.317 186.175 280.544 186.175 279.68C186.175 278.816 186.367 278.048 186.751 277.376C187.146 276.704 187.679 276.171 188.351 275.776C189.023 275.381 189.78 275.184 190.623 275.184C191.455 275.184 192.207 275.381 192.879 275.776C193.551 276.16 194.079 276.688 194.463 277.36C194.858 278.032 195.055 278.805 195.055 279.68C195.055 280.555 194.852 281.333 194.447 282.016C194.042 282.688 193.503 283.221 192.831 283.616C192.17 284 191.434 284.192 190.623 284.192ZM190.623 282.752C191.156 282.752 191.636 282.619 192.063 282.352C192.5 282.085 192.842 281.717 193.087 281.248C193.343 280.779 193.471 280.256 193.471 279.68C193.471 279.093 193.343 278.576 193.087 278.128C192.842 277.669 192.5 277.307 192.063 277.04C191.636 276.763 191.156 276.624 190.623 276.624C190.079 276.624 189.588 276.763 189.151 277.04C188.724 277.307 188.383 277.669 188.127 278.128C187.871 278.576 187.743 279.093 187.743 279.68C187.743 280.256 187.871 280.779 188.127 281.248C188.383 281.717 188.724 282.085 189.151 282.352C189.588 282.619 190.079 282.752 190.623 282.752ZM200.916 284.192C200.105 284.192 199.374 283.995 198.724 283.6C198.084 283.205 197.577 282.667 197.204 281.984C196.83 281.301 196.644 280.539 196.644 279.696C196.644 278.832 196.83 278.064 197.204 277.392C197.577 276.709 198.084 276.171 198.724 275.776C199.374 275.381 200.105 275.184 200.916 275.184C201.63 275.184 202.265 275.339 202.82 275.648C203.374 275.947 203.812 276.352 204.132 276.864L203.892 277.232V271.888H205.396V284H203.94V282.16L204.132 282.416C203.833 282.981 203.396 283.419 202.82 283.728C202.254 284.037 201.62 284.192 200.916 284.192ZM201.044 282.752C201.588 282.752 202.073 282.619 202.5 282.352C202.926 282.085 203.262 281.723 203.508 281.264C203.764 280.795 203.892 280.272 203.892 279.696C203.892 279.109 203.764 278.587 203.508 278.128C203.262 277.659 202.926 277.291 202.5 277.024C202.073 276.757 201.588 276.624 201.044 276.624C200.51 276.624 200.025 276.763 199.588 277.04C199.161 277.307 198.825 277.669 198.58 278.128C198.334 278.576 198.212 279.099 198.212 279.696C198.212 280.272 198.334 280.795 198.58 281.264C198.825 281.723 199.161 282.085 199.588 282.352C200.014 282.619 200.5 282.752 201.044 282.752ZM211.667 284.192C210.835 284.192 210.094 283.995 209.443 283.6C208.792 283.205 208.28 282.667 207.907 281.984C207.534 281.291 207.347 280.517 207.347 279.664C207.347 278.8 207.528 278.032 207.891 277.36C208.264 276.688 208.766 276.16 209.395 275.776C210.035 275.381 210.75 275.184 211.539 275.184C212.179 275.184 212.744 275.301 213.235 275.536C213.736 275.76 214.158 276.069 214.499 276.464C214.851 276.848 215.118 277.291 215.299 277.792C215.491 278.283 215.587 278.795 215.587 279.328C215.587 279.445 215.576 279.579 215.555 279.728C215.544 279.867 215.528 280 215.507 280.128H208.435V278.848H214.643L213.939 279.424C214.035 278.869 213.982 278.373 213.779 277.936C213.576 277.499 213.278 277.152 212.883 276.896C212.488 276.64 212.04 276.512 211.539 276.512C211.038 276.512 210.579 276.64 210.163 276.896C209.747 277.152 209.422 277.52 209.187 278C208.963 278.469 208.872 279.029 208.915 279.68C208.872 280.309 208.968 280.864 209.203 281.344C209.448 281.813 209.79 282.181 210.227 282.448C210.675 282.704 211.16 282.832 211.683 282.832C212.259 282.832 212.744 282.699 213.139 282.432C213.534 282.165 213.854 281.824 214.099 281.408L215.347 282.048C215.176 282.443 214.91 282.805 214.547 283.136C214.195 283.456 213.774 283.712 213.283 283.904C212.803 284.096 212.264 284.192 211.667 284.192ZM217.527 284V275.376H218.983V277.136L218.775 276.864C218.988 276.32 219.33 275.904 219.799 275.616C220.268 275.328 220.796 275.184 221.383 275.184C222.055 275.184 222.658 275.371 223.191 275.744C223.735 276.117 224.108 276.608 224.311 277.216L223.895 277.232C224.119 276.56 224.498 276.053 225.031 275.712C225.564 275.36 226.156 275.184 226.807 275.184C227.404 275.184 227.943 275.323 228.423 275.6C228.914 275.877 229.303 276.261 229.591 276.752C229.879 277.243 230.023 277.797 230.023 278.416V284H228.519V278.896C228.519 278.416 228.434 278.011 228.263 277.68C228.092 277.349 227.858 277.093 227.559 276.912C227.271 276.72 226.93 276.624 226.535 276.624C226.151 276.624 225.804 276.72 225.495 276.912C225.196 277.093 224.956 277.355 224.775 277.696C224.604 278.027 224.519 278.427 224.519 278.896V284H223.015V278.896C223.015 278.416 222.93 278.011 222.759 277.68C222.588 277.349 222.354 277.093 222.055 276.912C221.767 276.72 221.426 276.624 221.031 276.624C220.647 276.624 220.3 276.72 219.991 276.912C219.692 277.093 219.452 277.355 219.271 277.696C219.1 278.027 219.015 278.427 219.015 278.896V284H217.527ZM237.99 284.192C237.126 284.192 236.374 283.979 235.734 283.552C235.094 283.125 234.641 282.549 234.374 281.824L235.558 281.248C235.803 281.76 236.139 282.165 236.566 282.464C236.993 282.763 237.467 282.912 237.99 282.912C238.459 282.912 238.849 282.8 239.158 282.576C239.467 282.352 239.622 282.059 239.622 281.696C239.622 281.44 239.547 281.237 239.398 281.088C239.259 280.928 239.089 280.805 238.886 280.72C238.683 280.624 238.497 280.555 238.326 280.512L237.03 280.144C236.251 279.92 235.681 279.6 235.318 279.184C234.966 278.768 234.79 278.283 234.79 277.728C234.79 277.216 234.918 276.773 235.174 276.4C235.441 276.016 235.798 275.717 236.246 275.504C236.705 275.291 237.217 275.184 237.782 275.184C238.539 275.184 239.217 275.376 239.814 275.76C240.422 276.144 240.854 276.683 241.11 277.376L239.894 277.936C239.702 277.488 239.414 277.136 239.03 276.88C238.646 276.613 238.214 276.48 237.734 276.48C237.297 276.48 236.95 276.592 236.694 276.816C236.438 277.029 236.31 277.301 236.31 277.632C236.31 277.877 236.374 278.08 236.502 278.24C236.63 278.389 236.785 278.507 236.966 278.592C237.147 278.667 237.323 278.731 237.494 278.784L238.902 279.2C239.606 279.403 240.15 279.717 240.534 280.144C240.929 280.571 241.126 281.083 241.126 281.68C241.126 282.16 240.993 282.592 240.726 282.976C240.459 283.36 240.091 283.659 239.622 283.872C239.153 284.085 238.609 284.192 237.99 284.192ZM247.042 284.192C246.21 284.192 245.469 283.995 244.818 283.6C244.167 283.205 243.655 282.667 243.282 281.984C242.909 281.291 242.722 280.517 242.722 279.664C242.722 278.8 242.903 278.032 243.266 277.36C243.639 276.688 244.141 276.16 244.77 275.776C245.41 275.381 246.125 275.184 246.914 275.184C247.554 275.184 248.119 275.301 248.61 275.536C249.111 275.76 249.533 276.069 249.874 276.464C250.226 276.848 250.493 277.291 250.674 277.792C250.866 278.283 250.962 278.795 250.962 279.328C250.962 279.445 250.951 279.579 250.93 279.728C250.919 279.867 250.903 280 250.882 280.128H243.81V278.848H250.018L249.314 279.424C249.41 278.869 249.357 278.373 249.154 277.936C248.951 277.499 248.653 277.152 248.258 276.896C247.863 276.64 247.415 276.512 246.914 276.512C246.413 276.512 245.954 276.64 245.538 276.896C245.122 277.152 244.797 277.52 244.562 278C244.338 278.469 244.247 279.029 244.29 279.68C244.247 280.309 244.343 280.864 244.578 281.344C244.823 281.813 245.165 282.181 245.602 282.448C246.05 282.704 246.535 282.832 247.058 282.832C247.634 282.832 248.119 282.699 248.514 282.432C248.909 282.165 249.229 281.824 249.474 281.408L250.722 282.048C250.551 282.443 250.285 282.805 249.922 283.136C249.57 283.456 249.149 283.712 248.658 283.904C248.178 284.096 247.639 284.192 247.042 284.192ZM252.902 284V275.376H254.358V276.96L254.198 276.736C254.401 276.245 254.71 275.883 255.126 275.648C255.542 275.403 256.049 275.28 256.646 275.28H257.174V276.688H256.422C255.814 276.688 255.323 276.88 254.95 277.264C254.577 277.637 254.39 278.171 254.39 278.864V284H252.902ZM263.789 284.192C263.224 284.192 262.723 284.091 262.285 283.888C261.859 283.675 261.523 283.387 261.277 283.024C261.032 282.651 260.909 282.224 260.909 281.744C260.909 281.285 261.005 280.875 261.197 280.512C261.4 280.139 261.709 279.824 262.125 279.568C262.552 279.312 263.085 279.131 263.725 279.024L266.925 278.496V279.744L264.061 280.224C263.507 280.32 263.101 280.496 262.845 280.752C262.6 281.008 262.477 281.323 262.477 281.696C262.477 282.048 262.616 282.341 262.893 282.576C263.181 282.811 263.539 282.928 263.965 282.928C264.509 282.928 264.979 282.816 265.373 282.592C265.779 282.357 266.093 282.043 266.317 281.648C266.552 281.253 266.669 280.816 266.669 280.336V278.144C266.669 277.675 266.493 277.296 266.141 277.008C265.8 276.709 265.347 276.56 264.781 276.56C264.291 276.56 263.853 276.688 263.469 276.944C263.096 277.189 262.819 277.52 262.637 277.936L261.341 277.264C261.501 276.869 261.757 276.517 262.109 276.208C262.461 275.888 262.872 275.637 263.341 275.456C263.811 275.275 264.301 275.184 264.813 275.184C265.475 275.184 266.056 275.312 266.557 275.568C267.059 275.813 267.448 276.16 267.725 276.608C268.013 277.045 268.157 277.557 268.157 278.144V284H266.701V282.368L266.973 282.464C266.792 282.805 266.547 283.104 266.237 283.36C265.928 283.616 265.565 283.819 265.149 283.968C264.733 284.117 264.28 284.192 263.789 284.192ZM274.465 284.192C273.622 284.192 272.87 283.995 272.209 283.6C271.558 283.205 271.046 282.667 270.673 281.984C270.299 281.301 270.113 280.533 270.113 279.68C270.113 278.816 270.299 278.048 270.673 277.376C271.046 276.704 271.558 276.171 272.209 275.776C272.87 275.381 273.622 275.184 274.465 275.184C275.03 275.184 275.558 275.285 276.049 275.488C276.539 275.691 276.971 275.963 277.345 276.304C277.718 276.645 277.99 277.045 278.161 277.504L276.833 278.144C276.63 277.696 276.321 277.333 275.905 277.056C275.489 276.768 275.009 276.624 274.465 276.624C273.942 276.624 273.467 276.757 273.041 277.024C272.625 277.291 272.294 277.653 272.049 278.112C271.803 278.571 271.681 279.099 271.681 279.696C271.681 280.272 271.803 280.795 272.049 281.264C272.294 281.723 272.625 282.085 273.041 282.352C273.467 282.619 273.942 282.752 274.465 282.752C275.009 282.752 275.489 282.613 275.905 282.336C276.321 282.048 276.63 281.669 276.833 281.2L278.161 281.872C277.99 282.32 277.718 282.72 277.345 283.072C276.971 283.413 276.539 283.685 276.049 283.888C275.558 284.091 275.03 284.192 274.465 284.192ZM284.073 284.192C283.241 284.192 282.5 283.995 281.849 283.6C281.198 283.205 280.686 282.667 280.313 281.984C279.94 281.291 279.753 280.517 279.753 279.664C279.753 278.8 279.934 278.032 280.297 277.36C280.67 276.688 281.172 276.16 281.801 275.776C282.441 275.381 283.156 275.184 283.945 275.184C284.585 275.184 285.15 275.301 285.641 275.536C286.142 275.76 286.564 276.069 286.905 276.464C287.257 276.848 287.524 277.291 287.705 277.792C287.897 278.283 287.993 278.795 287.993 279.328C287.993 279.445 287.982 279.579 287.961 279.728C287.95 279.867 287.934 280 287.913 280.128H280.841V278.848H287.049L286.345 279.424C286.441 278.869 286.388 278.373 286.185 277.936C285.982 277.499 285.684 277.152 285.289 276.896C284.894 276.64 284.446 276.512 283.945 276.512C283.444 276.512 282.985 276.64 282.569 276.896C282.153 277.152 281.828 277.52 281.593 278C281.369 278.469 281.278 279.029 281.321 279.68C281.278 280.309 281.374 280.864 281.609 281.344C281.854 281.813 282.196 282.181 282.633 282.448C283.081 282.704 283.566 282.832 284.089 282.832C284.665 282.832 285.15 282.699 285.545 282.432C285.94 282.165 286.26 281.824 286.505 281.408L287.753 282.048C287.582 282.443 287.316 282.805 286.953 283.136C286.601 283.456 286.18 283.712 285.689 283.904C285.209 284.096 284.67 284.192 284.073 284.192ZM293.021 284.192C292.157 284.192 291.405 283.979 290.765 283.552C290.125 283.125 289.672 282.549 289.405 281.824L290.589 281.248C290.835 281.76 291.171 282.165 291.597 282.464C292.024 282.763 292.499 282.912 293.021 282.912C293.491 282.912 293.88 282.8 294.189 282.576C294.499 282.352 294.653 282.059 294.653 281.696C294.653 281.44 294.579 281.237 294.429 281.088C294.291 280.928 294.12 280.805 293.917 280.72C293.715 280.624 293.528 280.555 293.357 280.512L292.061 280.144C291.283 279.92 290.712 279.6 290.349 279.184C289.997 278.768 289.821 278.283 289.821 277.728C289.821 277.216 289.949 276.773 290.205 276.4C290.472 276.016 290.829 275.717 291.277 275.504C291.736 275.291 292.248 275.184 292.813 275.184C293.571 275.184 294.248 275.376 294.845 275.76C295.453 276.144 295.885 276.683 296.141 277.376L294.925 277.936C294.733 277.488 294.445 277.136 294.061 276.88C293.677 276.613 293.245 276.48 292.765 276.48C292.328 276.48 291.981 276.592 291.725 276.816C291.469 277.029 291.341 277.301 291.341 277.632C291.341 277.877 291.405 278.08 291.533 278.24C291.661 278.389 291.816 278.507 291.997 278.592C292.179 278.667 292.355 278.731 292.525 278.784L293.933 279.2C294.637 279.403 295.181 279.717 295.565 280.144C295.96 280.571 296.157 281.083 296.157 281.68C296.157 282.16 296.024 282.592 295.757 282.976C295.491 283.36 295.123 283.659 294.653 283.872C294.184 284.085 293.64 284.192 293.021 284.192ZM301.193 284.192C300.329 284.192 299.577 283.979 298.937 283.552C298.297 283.125 297.844 282.549 297.577 281.824L298.761 281.248C299.006 281.76 299.342 282.165 299.769 282.464C300.196 282.763 300.67 282.912 301.193 282.912C301.662 282.912 302.052 282.8 302.361 282.576C302.67 282.352 302.825 282.059 302.825 281.696C302.825 281.44 302.75 281.237 302.601 281.088C302.462 280.928 302.292 280.805 302.089 280.72C301.886 280.624 301.7 280.555 301.529 280.512L300.233 280.144C299.454 279.92 298.884 279.6 298.521 279.184C298.169 278.768 297.993 278.283 297.993 277.728C297.993 277.216 298.121 276.773 298.377 276.4C298.644 276.016 299.001 275.717 299.449 275.504C299.908 275.291 300.42 275.184 300.985 275.184C301.742 275.184 302.42 275.376 303.017 275.76C303.625 276.144 304.057 276.683 304.313 277.376L303.097 277.936C302.905 277.488 302.617 277.136 302.233 276.88C301.849 276.613 301.417 276.48 300.937 276.48C300.5 276.48 300.153 276.592 299.897 276.816C299.641 277.029 299.513 277.301 299.513 277.632C299.513 277.877 299.577 278.08 299.705 278.24C299.833 278.389 299.988 278.507 300.169 278.592C300.35 278.667 300.526 278.731 300.697 278.784L302.105 279.2C302.809 279.403 303.353 279.717 303.737 280.144C304.132 280.571 304.329 281.083 304.329 281.68C304.329 282.16 304.196 282.592 303.929 282.976C303.662 283.36 303.294 283.659 302.825 283.872C302.356 284.085 301.812 284.192 301.193 284.192ZM308.805 284.192C308.24 284.192 307.738 284.091 307.301 283.888C306.874 283.675 306.538 283.387 306.293 283.024C306.048 282.651 305.925 282.224 305.925 281.744C305.925 281.285 306.021 280.875 306.213 280.512C306.416 280.139 306.725 279.824 307.141 279.568C307.568 279.312 308.101 279.131 308.741 279.024L311.941 278.496V279.744L309.077 280.224C308.522 280.32 308.117 280.496 307.861 280.752C307.616 281.008 307.493 281.323 307.493 281.696C307.493 282.048 307.632 282.341 307.909 282.576C308.197 282.811 308.554 282.928 308.981 282.928C309.525 282.928 309.994 282.816 310.389 282.592C310.794 282.357 311.109 282.043 311.333 281.648C311.568 281.253 311.685 280.816 311.685 280.336V278.144C311.685 277.675 311.509 277.296 311.157 277.008C310.816 276.709 310.362 276.56 309.797 276.56C309.306 276.56 308.869 276.688 308.485 276.944C308.112 277.189 307.834 277.52 307.653 277.936L306.357 277.264C306.517 276.869 306.773 276.517 307.125 276.208C307.477 275.888 307.888 275.637 308.357 275.456C308.826 275.275 309.317 275.184 309.829 275.184C310.49 275.184 311.072 275.312 311.573 275.568C312.074 275.813 312.464 276.16 312.741 276.608C313.029 277.045 313.173 277.557 313.173 278.144V284H311.717V282.368L311.989 282.464C311.808 282.805 311.562 283.104 311.253 283.36C310.944 283.616 310.581 283.819 310.165 283.968C309.749 284.117 309.296 284.192 308.805 284.192ZM319.4 284.192C318.589 284.192 317.859 283.995 317.208 283.6C316.568 283.205 316.061 282.667 315.688 281.984C315.315 281.301 315.128 280.539 315.128 279.696C315.128 278.832 315.315 278.064 315.688 277.392C316.061 276.709 316.568 276.171 317.208 275.776C317.859 275.381 318.589 275.184 319.4 275.184C320.115 275.184 320.749 275.339 321.304 275.648C321.859 275.947 322.296 276.352 322.616 276.864L322.376 277.232V271.888H323.88V284H322.424V282.16L322.616 282.416C322.317 282.981 321.88 283.419 321.304 283.728C320.739 284.037 320.104 284.192 319.4 284.192ZM319.528 282.752C320.072 282.752 320.557 282.619 320.984 282.352C321.411 282.085 321.747 281.723 321.992 281.264C322.248 280.795 322.376 280.272 322.376 279.696C322.376 279.109 322.248 278.587 321.992 278.128C321.747 277.659 321.411 277.291 320.984 277.024C320.557 276.757 320.072 276.624 319.528 276.624C318.995 276.624 318.509 276.763 318.072 277.04C317.645 277.307 317.309 277.669 317.064 278.128C316.819 278.576 316.696 279.099 316.696 279.696C316.696 280.272 316.819 280.795 317.064 281.264C317.309 281.723 317.645 282.085 318.072 282.352C318.499 282.619 318.984 282.752 319.528 282.752ZM330.279 284.192C329.447 284.192 328.695 284 328.023 283.616C327.351 283.221 326.818 282.683 326.423 282C326.029 281.317 325.831 280.544 325.831 279.68C325.831 278.816 326.023 278.048 326.407 277.376C326.802 276.704 327.335 276.171 328.007 275.776C328.679 275.381 329.437 275.184 330.279 275.184C331.111 275.184 331.863 275.381 332.535 275.776C333.207 276.16 333.735 276.688 334.119 277.36C334.514 278.032 334.711 278.805 334.711 279.68C334.711 280.555 334.509 281.333 334.103 282.016C333.698 282.688 333.159 283.221 332.487 283.616C331.826 284 331.09 284.192 330.279 284.192ZM330.279 282.752C330.813 282.752 331.293 282.619 331.719 282.352C332.157 282.085 332.498 281.717 332.743 281.248C332.999 280.779 333.127 280.256 333.127 279.68C333.127 279.093 332.999 278.576 332.743 278.128C332.498 277.669 332.157 277.307 331.719 277.04C331.293 276.763 330.813 276.624 330.279 276.624C329.735 276.624 329.245 276.763 328.807 277.04C328.381 277.307 328.039 277.669 327.783 278.128C327.527 278.576 327.399 279.093 327.399 279.68C327.399 280.256 327.527 280.779 327.783 281.248C328.039 281.717 328.381 282.085 328.807 282.352C329.245 282.619 329.735 282.752 330.279 282.752ZM339.74 284.192C338.876 284.192 338.124 283.979 337.484 283.552C336.844 283.125 336.391 282.549 336.124 281.824L337.308 281.248C337.553 281.76 337.889 282.165 338.316 282.464C338.743 282.763 339.217 282.912 339.74 282.912C340.209 282.912 340.599 282.8 340.908 282.576C341.217 282.352 341.372 282.059 341.372 281.696C341.372 281.44 341.297 281.237 341.148 281.088C341.009 280.928 340.839 280.805 340.636 280.72C340.433 280.624 340.247 280.555 340.076 280.512L338.78 280.144C338.001 279.92 337.431 279.6 337.068 279.184C336.716 278.768 336.54 278.283 336.54 277.728C336.54 277.216 336.668 276.773 336.924 276.4C337.191 276.016 337.548 275.717 337.996 275.504C338.455 275.291 338.967 275.184 339.532 275.184C340.289 275.184 340.967 275.376 341.564 275.76C342.172 276.144 342.604 276.683 342.86 277.376L341.644 277.936C341.452 277.488 341.164 277.136 340.78 276.88C340.396 276.613 339.964 276.48 339.484 276.48C339.047 276.48 338.7 276.592 338.444 276.816C338.188 277.029 338.06 277.301 338.06 277.632C338.06 277.877 338.124 278.08 338.252 278.24C338.38 278.389 338.535 278.507 338.716 278.592C338.897 278.667 339.073 278.731 339.244 278.784L340.652 279.2C341.356 279.403 341.9 279.717 342.284 280.144C342.679 280.571 342.876 281.083 342.876 281.68C342.876 282.16 342.743 282.592 342.476 282.976C342.209 283.36 341.841 283.659 341.372 283.872C340.903 284.085 340.359 284.192 339.74 284.192ZM351.558 284.192C350.726 284.192 349.984 283.995 349.334 283.6C348.683 283.205 348.171 282.667 347.798 281.984C347.424 281.291 347.238 280.517 347.238 279.664C347.238 278.8 347.419 278.032 347.782 277.36C348.155 276.688 348.656 276.16 349.286 275.776C349.926 275.381 350.64 275.184 351.43 275.184C352.07 275.184 352.635 275.301 353.126 275.536C353.627 275.76 354.048 276.069 354.39 276.464C354.742 276.848 355.008 277.291 355.19 277.792C355.382 278.283 355.477 278.795 355.477 279.328C355.477 279.445 355.467 279.579 355.446 279.728C355.435 279.867 355.419 280 355.398 280.128H348.326V278.848H354.534L353.83 279.424C353.926 278.869 353.872 278.373 353.67 277.936C353.467 277.499 353.168 277.152 352.774 276.896C352.379 276.64 351.931 276.512 351.43 276.512C350.928 276.512 350.47 276.64 350.054 276.896C349.638 277.152 349.312 277.52 349.078 278C348.854 278.469 348.763 279.029 348.806 279.68C348.763 280.309 348.859 280.864 349.094 281.344C349.339 281.813 349.68 282.181 350.118 282.448C350.566 282.704 351.051 282.832 351.574 282.832C352.15 282.832 352.635 282.699 353.03 282.432C353.424 282.165 353.744 281.824 353.99 281.408L355.238 282.048C355.067 282.443 354.8 282.805 354.438 283.136C354.086 283.456 353.664 283.712 353.174 283.904C352.694 284.096 352.155 284.192 351.558 284.192ZM357.418 284V275.376H358.874V277.136L358.666 276.864C358.879 276.32 359.22 275.904 359.69 275.616C360.159 275.328 360.687 275.184 361.274 275.184C361.946 275.184 362.548 275.371 363.082 275.744C363.626 276.117 363.999 276.608 364.202 277.216L363.786 277.232C364.01 276.56 364.388 276.053 364.922 275.712C365.455 275.36 366.047 275.184 366.698 275.184C367.295 275.184 367.834 275.323 368.314 275.6C368.804 275.877 369.194 276.261 369.482 276.752C369.77 277.243 369.914 277.797 369.914 278.416V284H368.41V278.896C368.41 278.416 368.324 278.011 368.154 277.68C367.983 277.349 367.748 277.093 367.45 276.912C367.162 276.72 366.82 276.624 366.426 276.624C366.042 276.624 365.695 276.72 365.386 276.912C365.087 277.093 364.847 277.355 364.666 277.696C364.495 278.027 364.41 278.427 364.41 278.896V284H362.906V278.896C362.906 278.416 362.82 278.011 362.65 277.68C362.479 277.349 362.244 277.093 361.946 276.912C361.658 276.72 361.316 276.624 360.922 276.624C360.538 276.624 360.191 276.72 359.882 276.912C359.583 277.093 359.343 277.355 359.162 277.696C358.991 278.027 358.906 278.427 358.906 278.896V284H357.418ZM374.793 284V272.08H379.241C380.051 272.08 380.766 272.229 381.385 272.528C382.014 272.816 382.505 273.243 382.857 273.808C383.209 274.363 383.385 275.04 383.385 275.84C383.385 276.629 383.203 277.307 382.841 277.872C382.489 278.427 382.003 278.853 381.385 279.152C380.766 279.451 380.051 279.6 379.241 279.6H376.969V284H374.793ZM376.969 277.68H379.273C379.667 277.68 380.009 277.605 380.297 277.456C380.585 277.296 380.809 277.077 380.969 276.8C381.129 276.523 381.209 276.203 381.209 275.84C381.209 275.467 381.129 275.147 380.969 274.88C380.809 274.603 380.585 274.389 380.297 274.24C380.009 274.08 379.667 274 379.273 274H376.969V277.68ZM384.992 284V271.888H387.088V277.008L386.8 276.704C387.002 276.181 387.333 275.787 387.792 275.52C388.261 275.243 388.805 275.104 389.424 275.104C390.064 275.104 390.629 275.243 391.12 275.52C391.621 275.797 392.01 276.187 392.288 276.688C392.565 277.179 392.704 277.749 392.704 278.4V284H390.608V278.896C390.608 278.512 390.533 278.181 390.384 277.904C390.234 277.627 390.026 277.413 389.76 277.264C389.504 277.104 389.2 277.024 388.848 277.024C388.506 277.024 388.202 277.104 387.936 277.264C387.669 277.413 387.461 277.627 387.312 277.904C387.162 278.181 387.088 278.512 387.088 278.896V284H384.992ZM398.732 284.192C397.879 284.192 397.1 283.995 396.396 283.6C395.703 283.205 395.148 282.667 394.732 281.984C394.327 281.301 394.124 280.523 394.124 279.648C394.124 278.773 394.327 277.995 394.732 277.312C395.148 276.629 395.703 276.091 396.396 275.696C397.089 275.301 397.868 275.104 398.732 275.104C399.585 275.104 400.359 275.301 401.052 275.696C401.745 276.091 402.295 276.629 402.7 277.312C403.116 277.984 403.324 278.763 403.324 279.648C403.324 280.523 403.116 281.301 402.7 281.984C402.284 282.667 401.729 283.205 401.036 283.6C400.343 283.995 399.575 284.192 398.732 284.192ZM398.732 282.272C399.201 282.272 399.612 282.16 399.964 281.936C400.327 281.712 400.609 281.403 400.812 281.008C401.025 280.603 401.132 280.149 401.132 279.648C401.132 279.136 401.025 278.688 400.812 278.304C400.609 277.909 400.327 277.6 399.964 277.376C399.612 277.141 399.201 277.024 398.732 277.024C398.252 277.024 397.831 277.141 397.468 277.376C397.105 277.6 396.817 277.909 396.604 278.304C396.401 278.688 396.3 279.136 396.3 279.648C396.3 280.149 396.401 280.603 396.604 281.008C396.817 281.403 397.105 281.712 397.468 281.936C397.831 282.16 398.252 282.272 398.732 282.272ZM408.226 284.192C407.298 284.192 406.487 283.973 405.794 283.536C405.111 283.088 404.642 282.485 404.386 281.728L405.954 280.976C406.178 281.467 406.487 281.851 406.882 282.128C407.287 282.405 407.735 282.544 408.226 282.544C408.61 282.544 408.914 282.459 409.138 282.288C409.362 282.117 409.474 281.893 409.474 281.616C409.474 281.445 409.426 281.307 409.33 281.2C409.244 281.083 409.122 280.987 408.962 280.912C408.812 280.827 408.647 280.757 408.466 280.704L407.042 280.304C406.306 280.091 405.746 279.765 405.362 279.328C404.988 278.891 404.802 278.373 404.802 277.776C404.802 277.243 404.935 276.779 405.202 276.384C405.479 275.979 405.858 275.664 406.338 275.44C406.828 275.216 407.388 275.104 408.018 275.104C408.839 275.104 409.564 275.301 410.194 275.696C410.823 276.091 411.271 276.645 411.538 277.36L409.938 278.112C409.788 277.717 409.538 277.403 409.186 277.168C408.834 276.933 408.439 276.816 408.002 276.816C407.65 276.816 407.372 276.896 407.17 277.056C406.967 277.216 406.866 277.424 406.866 277.68C406.866 277.84 406.908 277.979 406.994 278.096C407.079 278.213 407.196 278.309 407.346 278.384C407.506 278.459 407.687 278.528 407.89 278.592L409.282 279.008C409.996 279.221 410.546 279.541 410.93 279.968C411.324 280.395 411.522 280.917 411.522 281.536C411.522 282.059 411.383 282.523 411.106 282.928C410.828 283.323 410.444 283.632 409.954 283.856C409.463 284.08 408.887 284.192 408.226 284.192ZM413.132 287.2V275.296H415.1V277.024L414.908 276.592C415.207 276.123 415.612 275.76 416.124 275.504C416.636 275.237 417.228 275.104 417.9 275.104C418.722 275.104 419.463 275.307 420.124 275.712C420.786 276.117 421.308 276.661 421.692 277.344C422.087 278.027 422.284 278.795 422.284 279.648C422.284 280.491 422.092 281.259 421.708 281.952C421.324 282.645 420.802 283.195 420.14 283.6C419.479 283.995 418.727 284.192 417.884 284.192C417.255 284.192 416.674 284.069 416.14 283.824C415.618 283.568 415.202 283.205 414.892 282.736L415.228 282.32V287.2H413.132ZM417.644 282.272C418.124 282.272 418.551 282.16 418.924 281.936C419.298 281.712 419.586 281.403 419.788 281.008C420.002 280.613 420.108 280.16 420.108 279.648C420.108 279.136 420.002 278.688 419.788 278.304C419.586 277.909 419.298 277.6 418.924 277.376C418.551 277.141 418.124 277.024 417.644 277.024C417.186 277.024 416.77 277.136 416.396 277.36C416.034 277.584 415.746 277.899 415.532 278.304C415.33 278.699 415.228 279.147 415.228 279.648C415.228 280.16 415.33 280.613 415.532 281.008C415.746 281.403 416.034 281.712 416.396 281.936C416.77 282.16 417.186 282.272 417.644 282.272ZM423.882 284V271.888H425.978V277.008L425.69 276.704C425.893 276.181 426.224 275.787 426.682 275.52C427.152 275.243 427.696 275.104 428.314 275.104C428.954 275.104 429.52 275.243 430.01 275.52C430.512 275.797 430.901 276.187 431.178 276.688C431.456 277.179 431.594 277.749 431.594 278.4V284H429.498V278.896C429.498 278.512 429.424 278.181 429.274 277.904C429.125 277.627 428.917 277.413 428.65 277.264C428.394 277.104 428.09 277.024 427.738 277.024C427.397 277.024 427.093 277.104 426.826 277.264C426.56 277.413 426.352 277.627 426.202 277.904C426.053 278.181 425.978 278.512 425.978 278.896V284H423.882ZM437.623 284.192C436.769 284.192 435.991 283.995 435.287 283.6C434.593 283.205 434.039 282.667 433.623 281.984C433.217 281.301 433.015 280.523 433.015 279.648C433.015 278.773 433.217 277.995 433.623 277.312C434.039 276.629 434.593 276.091 435.287 275.696C435.98 275.301 436.759 275.104 437.623 275.104C438.476 275.104 439.249 275.301 439.943 275.696C440.636 276.091 441.185 276.629 441.591 277.312C442.007 277.984 442.215 278.763 442.215 279.648C442.215 280.523 442.007 281.301 441.591 281.984C441.175 282.667 440.62 283.205 439.927 283.6C439.233 283.995 438.465 284.192 437.623 284.192ZM437.623 282.272C438.092 282.272 438.503 282.16 438.855 281.936C439.217 281.712 439.5 281.403 439.703 281.008C439.916 280.603 440.023 280.149 440.023 279.648C440.023 279.136 439.916 278.688 439.703 278.304C439.5 277.909 439.217 277.6 438.855 277.376C438.503 277.141 438.092 277.024 437.623 277.024C437.143 277.024 436.721 277.141 436.359 277.376C435.996 277.6 435.708 277.909 435.495 278.304C435.292 278.688 435.191 279.136 435.191 279.648C435.191 280.149 435.292 280.603 435.495 281.008C435.708 281.403 435.996 281.712 436.359 281.936C436.721 282.16 437.143 282.272 437.623 282.272ZM443.804 284V275.296H445.772V277.232L445.612 276.944C445.815 276.293 446.129 275.84 446.556 275.584C446.993 275.328 447.516 275.2 448.124 275.2H448.636V277.056H447.884C447.287 277.056 446.807 277.243 446.444 277.616C446.081 277.979 445.9 278.491 445.9 279.152V284H443.804ZM452.808 284V272.08H454.984V284H452.808ZM461.293 284.192C460.429 284.192 459.65 283.995 458.957 283.6C458.274 283.195 457.736 282.651 457.341 281.968C456.946 281.275 456.749 280.496 456.749 279.632C456.749 278.768 456.946 277.995 457.341 277.312C457.736 276.629 458.274 276.091 458.957 275.696C459.65 275.301 460.429 275.104 461.293 275.104C461.912 275.104 462.488 275.216 463.021 275.44C463.554 275.653 464.013 275.952 464.397 276.336C464.792 276.709 465.074 277.157 465.245 277.68L463.405 278.48C463.245 278.043 462.973 277.691 462.589 277.424C462.216 277.157 461.784 277.024 461.293 277.024C460.834 277.024 460.424 277.136 460.061 277.36C459.709 277.584 459.432 277.893 459.229 278.288C459.026 278.683 458.925 279.136 458.925 279.648C458.925 280.16 459.026 280.613 459.229 281.008C459.432 281.403 459.709 281.712 460.061 281.936C460.424 282.16 460.834 282.272 461.293 282.272C461.794 282.272 462.232 282.139 462.605 281.872C462.978 281.605 463.245 281.248 463.405 280.8L465.245 281.632C465.074 282.123 464.797 282.565 464.413 282.96C464.029 283.344 463.57 283.648 463.037 283.872C462.504 284.085 461.922 284.192 461.293 284.192ZM471.091 284.192C470.238 284.192 469.459 283.995 468.755 283.6C468.062 283.205 467.507 282.667 467.091 281.984C466.686 281.301 466.483 280.523 466.483 279.648C466.483 278.773 466.686 277.995 467.091 277.312C467.507 276.629 468.062 276.091 468.755 275.696C469.449 275.301 470.227 275.104 471.091 275.104C471.945 275.104 472.718 275.301 473.411 275.696C474.105 276.091 474.654 276.629 475.059 277.312C475.475 277.984 475.683 278.763 475.683 279.648C475.683 280.523 475.475 281.301 475.059 281.984C474.643 282.667 474.089 283.205 473.395 283.6C472.702 283.995 471.934 284.192 471.091 284.192ZM471.091 282.272C471.561 282.272 471.971 282.16 472.323 281.936C472.686 281.712 472.969 281.403 473.171 281.008C473.385 280.603 473.491 280.149 473.491 279.648C473.491 279.136 473.385 278.688 473.171 278.304C472.969 277.909 472.686 277.6 472.323 277.376C471.971 277.141 471.561 277.024 471.091 277.024C470.611 277.024 470.19 277.141 469.827 277.376C469.465 277.6 469.177 277.909 468.963 278.304C468.761 278.688 468.659 279.136 468.659 279.648C468.659 280.149 468.761 280.603 468.963 281.008C469.177 281.403 469.465 281.712 469.827 281.936C470.19 282.16 470.611 282.272 471.091 282.272ZM477.273 284V275.296H479.241V277.008L479.081 276.704C479.284 276.181 479.614 275.787 480.073 275.52C480.542 275.243 481.086 275.104 481.705 275.104C482.345 275.104 482.91 275.243 483.401 275.52C483.902 275.797 484.292 276.187 484.569 276.688C484.846 277.179 484.985 277.749 484.985 278.4V284H482.889V278.896C482.889 278.512 482.814 278.181 482.665 277.904C482.516 277.627 482.308 277.413 482.041 277.264C481.785 277.104 481.481 277.024 481.129 277.024C480.788 277.024 480.484 277.104 480.217 277.264C479.95 277.413 479.742 277.627 479.593 277.904C479.444 278.181 479.369 278.512 479.369 278.896V284H477.273ZM490.069 284.192C489.141 284.192 488.331 283.973 487.637 283.536C486.955 283.088 486.485 282.485 486.229 281.728L487.797 280.976C488.021 281.467 488.331 281.851 488.725 282.128C489.131 282.405 489.579 282.544 490.069 282.544C490.453 282.544 490.757 282.459 490.981 282.288C491.205 282.117 491.317 281.893 491.317 281.616C491.317 281.445 491.269 281.307 491.173 281.2C491.088 281.083 490.965 280.987 490.805 280.912C490.656 280.827 490.491 280.757 490.309 280.704L488.885 280.304C488.149 280.091 487.589 279.765 487.205 279.328C486.832 278.891 486.645 278.373 486.645 277.776C486.645 277.243 486.779 276.779 487.045 276.384C487.323 275.979 487.701 275.664 488.181 275.44C488.672 275.216 489.232 275.104 489.861 275.104C490.683 275.104 491.408 275.301 492.037 275.696C492.667 276.091 493.115 276.645 493.381 277.36L491.781 278.112C491.632 277.717 491.381 277.403 491.029 277.168C490.677 276.933 490.283 276.816 489.845 276.816C489.493 276.816 489.216 276.896 489.013 277.056C488.811 277.216 488.709 277.424 488.709 277.68C488.709 277.84 488.752 277.979 488.837 278.096C488.923 278.213 489.04 278.309 489.189 278.384C489.349 278.459 489.531 278.528 489.733 278.592L491.125 279.008C491.84 279.221 492.389 279.541 492.773 279.968C493.168 280.395 493.365 280.917 493.365 281.536C493.365 282.059 493.227 282.523 492.949 282.928C492.672 283.323 492.288 283.632 491.797 283.856C491.307 284.08 490.731 284.192 490.069 284.192Z" fill="#C4C4CC"/>
<path d="M373.641 286.8H494.005V287.44H373.641V286.8Z" fill="#C4C4CC"/>
<a href="https://phosphoricons.com/">
<rect fill="black" fill-opacity="0" x="277.641" y="2.92" width="120.365" height="20.16"/>
</a>
</svg>
